# xmcd
#
# Track frame offsets: 
#        150
#        34737
#        54350
#        69062
#        94287
#        119862
#        135087
#        166937
#        188525
#        227650
#        246150
#        288437
#        314212
#        335537
#
# Disc length: 4560 seconds
#
# Revision: 10
# Processed by: cddbd v1.5.2PL0 Copyright (c) Steve Scherf et al.
# Submitted via: ExactAudioCopy v0.99pb5
#
DISCID=c311ce0e
DTITLE=Guns N' Roses - Use Your Illusion II
DYEAR=1991
DGENRE=Rock
TTITLE0=Civil War
TTITLE1=14 Years
TTITLE2=Yesterdays
TTITLE3=Knockin' On Heaven's Door
TTITLE4=Get In The Ring
TTITLE5=Shotgun Blues
TTITLE6=Breakdown
TTITLE7=Pretty Tied Up
TTITLE8=Locomotive
TTITLE9=So Fine
TTITLE10=Estranged
TTITLE11=You Could Be Mine
TTITLE12=Don't Cry (Alt. Lyrics)
TTITLE13=My World
EXTD=YEAR: 1987
EXTT0=
EXTT1=
EXTT2=
EXTT3=
EXTT4=
EXTT5=
EXTT6=
EXTT7=
EXTT8=
EXTT9=
EXTT10=
EXTT11=
EXTT12=
EXTT13=
PLAYORDER=
